<svg width="91" height="47" viewBox="0 0 91 47" fill="none" xmlns="http://www.w3.org/2000/svg">
<rect y="0.0654297" width="91" height="46" rx="8" fill="white"/>
<path d="M31.9741 26.8421C33.4049 27.472 34.8811 27.9583 36.386 28.2954V13.4942C36.3873 12.8939 36.285 12.2992 36.085 11.744C35.885 11.1888 35.5912 10.6841 35.2203 10.2585C34.8494 9.83302 34.4087 9.49505 33.9233 9.26394C33.438 9.03284 32.9176 8.91312 32.3917 8.91162H15.3843C14.8573 8.912 14.3356 9.03087 13.8489 9.26146C13.3623 9.49205 12.9201 9.82983 12.5478 10.2555C12.1755 10.6812 11.8803 11.1864 11.6791 11.7424C11.4778 12.2983 11.3745 12.8941 11.375 13.4956V32.8808C11.3737 33.4811 11.476 34.0758 11.676 34.631C11.876 35.1861 12.1699 35.6909 12.5408 36.1164C12.9117 36.5419 13.3523 36.8799 13.8377 37.111C14.323 37.3421 14.8434 37.4618 15.3693 37.4633H32.3767C32.9037 37.463 33.4254 37.3441 33.9121 37.1135C34.3988 36.8829 34.8409 36.5451 35.2132 36.1195C35.5855 35.6938 35.8807 35.1885 36.0819 34.6326C36.2832 34.0766 36.3865 33.4809 36.386 32.8794V32.7223C36.386 32.7223 29.8944 29.6359 26.6067 27.8186C24.4045 30.8736 21.557 32.7238 18.6107 32.7238C13.6222 32.7238 11.9365 27.75 14.2988 24.4637C15.0255 23.5606 15.9906 22.9531 17.0475 22.7335C19.1734 22.1368 22.5599 23.1047 25.7263 24.2996C26.3166 23.049 26.788 21.7299 27.1307 20.3637H17.3651V19.2302H22.3986V17.223H16.2797V16.0995H22.3924V13.193C22.3912 13.1274 22.402 13.0623 22.4239 13.0017C22.4458 12.9411 22.4785 12.8863 22.5198 12.8407C22.5611 12.7952 22.6102 12.7598 22.664 12.7369C22.7178 12.714 22.7752 12.704 22.8325 12.7076H25.2999V16.0995H31.3363V17.223H25.2999V19.2473H30.227C29.7917 21.3566 29.0886 23.3819 28.1399 25.2589C29.6593 25.8813 30.9649 26.4524 31.9365 26.8507L31.9741 26.8421ZM17.1626 23.69C16.3247 23.7756 15.5218 24.1183 14.839 24.6793C13.0132 26.4995 14.1175 29.8272 17.7903 29.8272C19.955 29.8272 22.0772 28.2454 23.773 25.75C21.3907 24.3909 19.356 23.4516 17.1626 23.69Z" fill="#3379F6"/>
<path d="M77.6254 28.7066L76.5574 31.359L75.4757 28.7066H74.429L76.0672 32.3312V34.8766H77.0414V32.3312L78.6796 28.6909H77.6254V28.7066ZM69.8257 30.3055L70.5473 32.8665H69.1042L69.8257 30.304V30.3055ZM70.7999 33.6574L71.1601 34.9094H72.1705L70.2009 28.7066H69.4131L67.4297 34.9094H68.4401L68.8215 33.6574H70.7999ZM63.2804 31.6874H62.2124V29.5631H63.2804C63.5182 29.5761 63.742 29.6959 63.9027 29.8965C64.0634 30.0971 64.1481 30.3622 64.1382 30.6338C64.1472 30.7686 64.1317 30.904 64.0926 31.0316C64.0535 31.1592 63.9918 31.2762 63.9112 31.3753C63.8307 31.4743 63.7331 31.5533 63.6245 31.6073C63.5159 31.6612 63.3988 31.689 63.2804 31.6888V31.6874ZM63.3304 28.7066H61.2382V34.9094H62.2124V32.5211H63.3304C63.5592 32.5386 63.7887 32.5023 64.0047 32.4143C64.2208 32.3264 64.4187 32.1888 64.5862 32.01C64.7537 31.8311 64.8872 31.6149 64.9785 31.3748C65.0698 31.1346 65.1169 30.8756 65.1169 30.6138C65.1169 30.352 65.0698 30.093 64.9785 29.8528C64.8872 29.6127 64.7537 29.3965 64.5862 29.2177C64.4187 29.0389 64.2208 28.9012 64.0047 28.8133C63.7887 28.7254 63.5592 28.689 63.3304 28.7066ZM56.3311 34.9094H57.3052V28.7066H56.3298V34.9094H56.3311ZM49.4906 28.7066V34.9094H52.767V34.0857H50.4647V28.7066H49.4893H49.4906ZM43.9481 30.3055L44.6697 32.8665H43.169L43.9481 30.304V30.3055ZM44.9223 33.6574L45.2825 34.9094H46.2929L44.3083 28.7066H43.5292L41.5446 34.9094H42.555L42.9377 33.6574H44.9223ZM51.7841 16.6049H47.6072V14.8918H52.4481V13.8211H47.606V11.654H45.4425C45.3857 11.654 45.3294 11.6671 45.2771 11.6926C45.2249 11.7182 45.1777 11.7556 45.1385 11.8026C45.0993 11.8496 45.0689 11.9052 45.0492 11.9661C45.0294 12.0269 45.0207 12.0917 45.0236 12.1566V13.804H40.2377V14.8747H45.0361V16.6049H40.9593V17.6756H49.0479C48.5275 19.3293 47.6005 20.7766 46.3779 21.8442C45.3363 21.0093 44.4388 19.962 43.7305 18.7549H41.5658C42.4463 20.4338 43.6266 21.8824 45.0298 23.0062C43.5114 24.1057 41.8644 24.9545 40.1377 25.5273V26.795C42.3413 26.2535 44.4573 25.3225 46.4092 24.0355C48.3341 25.2998 50.4133 26.2298 52.5782 26.795V25.593C50.9084 24.9135 49.3049 24.038 47.7936 22.9805C49.7123 21.4262 51.1177 19.1808 51.7841 16.6049ZM65.3225 11.8511H63.1578V14.455H57.7954V15.51H63.1503V24.8678C63.1408 24.969 63.1013 25.0634 63.0382 25.1353C62.9752 25.2072 62.8925 25.2524 62.8039 25.2632H61.6997V26.3339H64.5209C64.7387 26.3198 64.944 26.213 65.0964 26.0346C65.2487 25.8563 65.3369 25.6193 65.3438 25.3703V15.4843H66.2166V14.4564H65.3225V11.8511ZM60.7467 17.2659C60.7082 17.1709 60.6457 17.0911 60.5673 17.0367C60.489 16.9823 60.3982 16.9558 60.3066 16.9604H58.5033L59.9464 22.0426H62.1111L60.8118 17.2659H60.7467ZM79.625 26.1626L78.8597 23.2046C78.8349 23.1105 78.7844 23.0279 78.7156 22.9688C78.6467 22.9097 78.5631 22.8773 78.477 22.8763H76.4636L77.0414 25.1576H74.6604V20.7492H79.3287V19.6942H74.6741V17.6342H79.3437V16.5806H67.6598V17.6342H72.3506V19.6942H67.661V20.7492H72.3506V25.1562H67.661V26.2111H79.625V26.1612V26.1626ZM55.3931 11.7368L52.8958 18.4922H54.8016V26.5652H56.8938V15.8554H56.1147L57.6954 11.7368H55.3931ZM70.1209 14.0838H76.9188V15.617H79.3574V13.7797C79.3594 13.5866 79.2947 13.4003 79.1771 13.2613C79.0596 13.1223 78.8988 13.0419 78.7296 13.0374H74.8042V11.5884H72.2718V13.0302H67.7186V15.617H70.1571V14.0838H70.1209Z" fill="black"/>
</svg>
