<svg width="54" height="23" viewBox="0 0 54 23" fill="none" xmlns="http://www.w3.org/2000/svg">
<path d="M10.6426 4.9165C10.2083 4.9165 9.80029 4.98389 9.41846 5.11865C9.03662 5.24593 8.69222 5.37695 8.38525 5.51172C8.07829 5.64648 7.80876 5.71387 7.57666 5.71387C7.33708 5.71387 7.06755 5.65023 6.76807 5.52295C6.47607 5.39567 6.16162 5.27214 5.82471 5.15234C5.48779 5.02507 5.12842 4.96143 4.74658 4.96143C4.02783 4.96143 3.33154 5.15983 2.65771 5.55664C1.99137 5.94596 1.44482 6.5262 1.01807 7.29736C0.591309 8.06104 0.37793 9.00814 0.37793 10.1387C0.37793 11.1943 0.553874 12.2425 0.905762 13.2832C1.26514 14.3164 1.69564 15.1924 2.19727 15.9111C2.63151 16.5176 3.05452 17.0379 3.46631 17.4722C3.87809 17.9064 4.35726 18.1235 4.90381 18.1235C5.26318 18.1235 5.57389 18.0636 5.83594 17.9438C6.10547 17.8241 6.38623 17.7043 6.67822 17.5845C6.9777 17.4647 7.34831 17.4048 7.79004 17.4048C8.24674 17.4048 8.60986 17.4647 8.87939 17.5845C9.14893 17.6968 9.41097 17.8128 9.66553 17.9326C9.92008 18.0449 10.2458 18.1011 10.6426 18.1011C11.234 18.1011 11.7394 17.8765 12.1587 17.4272C12.5854 16.978 12.9823 16.4876 13.3491 15.9561C13.7684 15.3421 14.0679 14.7843 14.2476 14.2827C14.4347 13.7811 14.5321 13.5153 14.5396 13.4854C14.5246 13.4779 14.3973 13.4105 14.1577 13.2832C13.9256 13.1559 13.6561 12.9575 13.3491 12.688C13.0496 12.411 12.7839 12.0479 12.5518 11.5986C12.3271 11.1494 12.2148 10.6029 12.2148 9.95898C12.2148 9.39746 12.3047 8.91455 12.4844 8.51025C12.6641 8.09847 12.8737 7.76156 13.1133 7.49951C13.3529 7.22998 13.57 7.02783 13.7646 6.89307C13.9593 6.75081 14.0679 6.66846 14.0903 6.646C13.701 6.08447 13.2668 5.68392 12.7876 5.44434C12.3159 5.19727 11.8817 5.04753 11.4849 4.99512C11.0881 4.94271 10.8073 4.9165 10.6426 4.9165ZM10.0249 3.49023C10.2944 3.16081 10.5153 2.78646 10.6875 2.36719C10.8597 1.94043 10.9458 1.50244 10.9458 1.05322C10.9458 0.918457 10.9346 0.802409 10.9121 0.705078C10.4779 0.720052 10.0212 0.851074 9.54199 1.09814C9.06283 1.34521 8.66602 1.65592 8.35156 2.03027C8.10449 2.30729 7.88363 2.65918 7.68896 3.08594C7.4943 3.50521 7.39697 3.93945 7.39697 4.38867C7.39697 4.45605 7.40072 4.51969 7.4082 4.57959C7.41569 4.63949 7.42318 4.68066 7.43066 4.70312C7.50553 4.7181 7.58415 4.72559 7.6665 4.72559C8.06331 4.72559 8.48258 4.60954 8.92432 4.37744C9.36605 4.13786 9.73291 3.84212 10.0249 3.49023ZM18.3916 12.6431H23.2544C24.355 12.6431 25.3171 12.4185 26.1406 11.9692C26.9642 11.5125 27.6081 10.8799 28.0723 10.0713C28.5365 9.25521 28.7686 8.30811 28.7686 7.22998V7.20752C28.7686 6.12191 28.5365 5.1748 28.0723 4.36621C27.6081 3.55013 26.9642 2.91748 26.1406 2.46826C25.3171 2.01904 24.355 1.79443 23.2544 1.79443H18.3916V4.15283H22.5469C23.5876 4.15283 24.3962 4.41862 24.9727 4.9502C25.5492 5.48177 25.8374 6.23796 25.8374 7.21875V7.24121C25.8374 8.21452 25.5492 8.9707 24.9727 9.50977C24.3962 10.0413 23.5876 10.3071 22.5469 10.3071H18.3916V12.6431ZM16.9429 18H19.8291V1.79443H16.9429V18ZM33.6875 18.2021C34.2191 18.2021 34.7132 18.1235 35.1699 17.9663C35.6266 17.8016 36.0347 17.5732 36.394 17.2812C36.7534 16.9818 37.0454 16.6261 37.27 16.2144H37.3711V18H40.1562V9.74561C40.1562 8.92952 39.9578 8.22201 39.561 7.62305C39.1642 7.0166 38.599 6.55241 37.8652 6.23047C37.139 5.90104 36.2668 5.73633 35.2485 5.73633C34.2528 5.73633 33.388 5.89355 32.6543 6.20801C31.9281 6.51497 31.3516 6.93799 30.9248 7.47705C30.498 8.01611 30.251 8.63753 30.1836 9.34131L30.1724 9.46484H32.7778L32.8003 9.375C32.9051 8.94824 33.1559 8.60758 33.5527 8.35303C33.957 8.09098 34.4849 7.95996 35.1362 7.95996C35.8625 7.95996 36.4165 8.12842 36.7983 8.46533C37.1802 8.80225 37.3711 9.27393 37.3711 9.88037V13.564C37.3711 14.0356 37.2476 14.4624 37.0005 14.8442C36.7534 15.2186 36.4128 15.5181 35.9785 15.7427C35.5518 15.9598 35.0651 16.0684 34.5186 16.0684C33.9046 16.0684 33.4067 15.9261 33.0249 15.6416C32.6431 15.3571 32.4521 14.964 32.4521 14.4624V14.4399C32.4521 13.9608 32.6356 13.5789 33.0024 13.2944C33.3768 13.0099 33.9233 12.8452 34.6421 12.8003L38.7974 12.542V10.689L34.249 10.9697C33.2757 11.0296 32.4484 11.2093 31.7671 11.5088C31.0858 11.8008 30.5654 12.2051 30.2061 12.7217C29.8542 13.2308 29.6782 13.8447 29.6782 14.5635V14.5859C29.6782 15.3047 29.8467 15.9373 30.1836 16.4839C30.528 17.0229 30.9997 17.446 31.5986 17.7529C32.2051 18.0524 32.9014 18.2021 33.6875 18.2021ZM44.1206 22.0767C44.9741 22.0767 45.7078 21.9569 46.3218 21.7173C46.9357 21.4852 47.4598 21.0959 47.894 20.5493C48.3358 20.0103 48.7139 19.2803 49.0283 18.3594L53.3521 5.97217H50.4097L47.355 16.3267L47.894 15.5181H47.1753L47.7031 16.3267L44.6597 5.97217H41.6162L45.9287 18.0112L45.7603 18.5278C45.5955 19.0444 45.3485 19.4038 45.019 19.606C44.6896 19.8081 44.2516 19.9092 43.7051 19.9092C43.5254 19.9092 43.3569 19.9017 43.1997 19.8867C43.0425 19.8717 42.9115 19.8568 42.8066 19.8418V21.9756C42.9788 21.998 43.181 22.0205 43.4131 22.043C43.6527 22.0654 43.8885 22.0767 44.1206 22.0767Z" fill="black"/>
</svg>
