<?xml version="1.0" encoding="UTF-8"?>
<svg id="Layer_1" data-name="Layer 1" xmlns="http://www.w3.org/2000/svg" viewBox="0 0 1000 1000">
  <path d="M623.61,213.49c-4.26,5.86-7.03,12.61-10.14,19.11-5.61,11.61-11.11,23.26-16.8,34.84-2.48,5.53-5.76,10.81-6.96,16.84-3.61-15.4-10.88-29.95-20.33-42.6l.04-.24c-7.79-9.53-17.2-17.72-28.02-23.62-8.59-4.6-17.94-7.56-27.46-9.46-7.32-1-14.73-1.26-22.07-.31-11.62,1.59-23,6.18-31.58,14.32-6.62,6.5-11.9,15.03-11.83,24.58-.41,8.42,2.32,16.72,6.94,23.7,6.09,8.93,15.29,14.95,24.79,19.75,4.64,2.28,9.45,4.2,14.31,5.97v.09c5.52,2.05,11.09,4,16.65,5.97,5.8,2.02,11.61,4.03,17.38,6.16,5.58,1.97,11.03,4.27,16.46,6.63,6.53,2.85,12.89,6.07,19.11,9.56,7.48,4.31,14.29,9.72,20.34,15.88,2.17,1.8,1.3,4.88,1.4,7.33-2.03,23.8-6.09,47.4-11.49,70.66-.39-5.53-.16-11.14-1.46-16.58-1.12-5.75-3.62-11.1-6.66-16.07-5.11-7.38-11.36-13.98-18.82-19.02-6.15-3.98-12.67-7.36-19.44-10.15-5.62-2.48-11.31-4.8-17.01-7.08-5.86-2.25-11.69-4.58-17.58-6.76v-.12c-4.54-1.67-9.02-3.52-13.47-5.44-8.55-3.63-17.02-7.48-25.18-11.92-6.35-3.43-12.47-7.3-18.3-11.57-7.21-5.56-14.14-11.85-18.61-19.89-7.47-13.43-9.96-29.89-5.4-44.7,3.73-13.06,11.75-24.54,21.55-33.8,6.15-5.9,13.39-10.49,20.91-14.43,9.24-4.51,19.17-7.62,29.36-9l-.14-.22c10.51-.93,21.11-1.37,31.63-.19l-.23.13c9.19.86,18.19,3.05,27.01,5.71,9.58,2.99,18.8,6.96,27.99,10.96,16.48,7.52,35.6,11.02,53.11,4.98Z" fill="#fff"/>
  <path d="M418.92,749.79c-.05-2.3,0-4.6,0-6.89,0-1.19,0-2.37,0-3.56,0-.61,0-1.23,0-1.84,0-.36-.18-1.38,0-1.68-3.88,5.5-8.7,10.46-14.81,13.44-9.22,3.85-20.45,3.75-29.12-1.45-7.63-4.77-10.56-14.15-10.89-22.71-.32-14.71.13-29.43-.22-44.14.01-3.21-2.46-5.32-5.04-6.73,8.84-.07,17.69-.05,26.53-.01-3.03,1.48-5.22,4.33-5.03,7.83-.08,15.99-.02,31.99-.03,47.98.05,5.98,2.27,12.76,8,15.56,4.54,2.68,10.01,2.17,14.93,1.04,0,0,1.19-.62,1.21-.63,5.92-3.3,11.54-7.79,14.33-14.12.32-15.3.02-30.62.15-45.93-.06-2.87.25-5.97-1.25-8.55-.91-1.51-2.63-2.14-3.97-3.15,8.88-.13,17.77-.06,26.66-.02-3.06,1.41-5.26,4.24-5.13,7.72-.11,19.01-.06,38.03-.03,57.05-.19,3.74,2.59,8.02,5.87,9.69-1.42.28-3.15.03-4.61-.03-1.59-.07-3.17-.17-4.76-.24-4.28-.19-8.74-.12-12.8,1.37Z" fill="#fff"/>
  <path d="M548.81,382.54c-12.61-.13-25.24-.67-37.78-2.12-13.21-1.26-26.31-3.56-39.15-6.94-13.79-3.79-27.5-8.71-39.49-16.65v-.12c-13.71-9.02-25.5-21.34-32.95-36.05-7.87-15.8-7.33-34.33-3.05-51.07,2.24-8.27,4.42-16.78,9.05-24.1-.03,2.27-1.69,4.13-1.99,6.37-3.33,16.91-1.09,34.89,6.33,50.45,5.69,11.02,13.94,20.61,23.58,28.36,11.66,9.7,24.99,17.15,38.59,23.75,12.45,5.77,25.37,10.45,38.49,14.44,12.94,4.09,26.05,7.87,38.37,13.68Z" fill="#fff"/>
  <path d="M483.25,426.66c-8.46,4.38-16.67,9.22-25.09,13.66-4.06,2.07-7.85,4.76-12.23,6.13-2.23.74-4.44-.91-5.25-2.91-1.48-3.68-1.12-7.73-1.15-11.6.27-11.96-.39-23.94.19-35.9-.04-3.66,3.24-7.52,7.12-6.74,4.13.92,7.65,3.45,11.36,5.38,8.44,4.54,16.68,9.47,25.35,13.6-.53,6.11-.52,12.25-.3,18.38Z" fill="#fff"/>
  <path d="M605.92,417.61c7.81,7.31,17.58,12.52,27.95,15.2-14.19,37.04-33.67,71.97-57.36,103.76-3.86,5.33-7.78,10.66-12.17,15.58l.03.4c-6.51,7.58-12.39,15.74-19.49,22.79-12.33,15.24-26.81,28.67-40.44,42.76,6.88-13.79,13.13-27.89,20-41.7,6.75-13.37,13.32-26.84,19.69-40.4,5.6-12.39,10.95-24.92,15.5-37.74,4.47-12.08,8.58-24.3,12.07-36.7,7.15-25.46,12.07-51.49,15.79-77.65,1.61-11.9,3.65-23.78,4.44-35.77,5.33,7.52,11.82,14.11,17.88,21.03,7.99,9.08,15.83,18.38,24.92,26.41-9.8,7.08-18.9,15.09-28.81,22.03Z" fill="#fff"/>
  <path d="M503.11,615.92c-14.02-11.58-27.99-23.24-40.64-36.34-11.66-11.94-22.82-24.38-33.32-37.35l.02-.13c-9.79-11.81-18.67-24.37-26.98-37.26-14.54-21.9-25.78-45.74-36.24-69.79,10.28-3.64,18.5-10.96,26.57-18-10.03-7-20.23-13.78-30.14-20.95,14.15-12.37,27.15-25.99,40.09-39.6,3.65-3.95,6.46-8.52,9.01-13.22,2.03,40.95,6.58,82.05,17.86,121.58.43,1.65,1.06,3.26,1.26,4.98,8.49,27.13,19.88,53.29,32.81,78.56,12.22,23.09,25.65,45.51,39.7,67.52Z" fill="#fff"/>
  <path d="M555.57,437.09c-.18,2.95-.28,6.56-2.95,8.45-2.31,1.77-5.16.39-7.46-.64-4.25-2.18-8.4-4.57-12.66-6.76l.06-.12c-6.87-3.64-13.8-7.2-20.52-11.1-.52-6.04.32-12.36-.45-18.49,7.53-4.03,15.13-7.94,22.41-12.43,4.19-2.42,8.42-4.9,13.05-6.41,1.99-.75,4.59-.47,5.93,1.35,2.51,3.07,2.56,7.27,2.64,11.04-.05,11.7.09,23.41-.05,35.11Z" fill="#fff"/>
  <path d="M492.42,406.6c4.54-.49,10.3-1.41,13.97,1.96,2.12,4.79,1.54,10.32,1.23,15.42-.61,4.46-5.8,5.59-9.56,5.61-3.86.06-9.07-.71-10.43-4.98-.85-4.33-.63-8.86-.07-13.21.32-2.53,2.48-4.27,4.86-4.8Z" fill="#fff"/>
  <path d="M493.25,471.26c7.03-2.89,15.17,1.88,17.35,8.87,3.21,7.81-2.5,17.14-10.52,18.87-6.12,1.62-13.04-2-15.15-7.98-3.17-7.4.81-16.87,8.32-19.76Z" fill="#fff"/>
  <g>
    <path d="M460.75,647.5c6.66-2.94,14.34,3.48,13.28,10.51-.34,6.77-8.51,11.37-14.39,7.87-7.22-3.61-6.62-15.74,1.11-18.38Z" fill="#fff"/>
    <path d="M452.48,676.99c7.23-.07,14.67.06,21.53-2.59-.02,22.54-.05,45.08.01,67.62-.31,3.56,2.06,6.35,5.14,7.76-8.88.06-17.76.04-26.63.02,1.54-1.19,3.64-2.01,4.31-4.01,1.1-2.81.8-5.89.86-8.83-.11-17.57.14-35.16-.12-52.73.08-3.37-2.29-5.81-5.1-7.24Z" fill="#fff"/>
  </g>
  <path d="M641.08,653.78c-3.6,1.16-5.44,4.64-5.21,8.29-.11,17.99-.01,35.98-.04,53.97,0,6.51-1.74,13.07-5.33,18.53-4.35,6.72-11.1,11.58-18.46,14.53-10.27,3.5-21.57,3.67-32.04,1.01-8.06-2.14-15.48-7.02-20.1-14.03-4.32-6.47-6.06-14.36-6.1-22.06,0-17.02,0-34.03.01-51.05.19-3.73-1.1-7.94-5.1-9.08,4.38-.79,8.86-.25,13.29-.39,4.39.12,8.83-.36,13.19.38-3.05.97-5.1,3.73-5.04,6.94-.15,19.39-.01,38.79-.07,58.18-.04,8.27,2.82,17.14,9.74,22.17,8.88,6.59,20.86,7.54,31.39,5.21l-.04-.16c12.65-3.6,21.7-16.11,21.78-29.17.1-18.36.05-36.72.02-55.07.23-3.56-1.57-7.07-5.15-8.11,4.38-.67,8.85-.45,13.26-.09Z" fill="#fff"/>
  <path d="M494.47,656.26c7.17-.08,14.55.09,21.36-2.53-.03,6.81-.03,13.62,0,20.44,5.91.03,11.83.02,17.74.02.02.7.05,2.1.06,2.8-5.93.2-11.86.04-17.79.11.08,19.3-.37,38.62.42,57.91.39,5.14,1.12,11.86,6.47,14.25,6.18,1.48,12.39-1.28,17.71-4.22-.19,1.64-1.72,2.41-2.96,3.2-6.97,4.01-15.59,4.72-23.28,2.63-5.19-1.38-9.58-5.28-11.51-10.29-3.06-7.82-2.92-16.35-3.18-24.61-.04-12.96.01-25.92-.02-38.88-3.9-.05-7.8.12-11.69-.07-.28-.92-.44-1.86-.48-2.82,4.05-.05,8.11-.01,12.17-.03-.17-4.38.47-8.86-.45-13.17-.55-2.34-2.81-3.43-4.57-4.74Z" fill="#fff"/>
  <path d="M730.39,689.5c-4.95-7.66-12.71-13.31-21.38-16.03-12.01-3.29-25.3-.58-34.93,7.34,0-2.13.01-4.26.03-6.38-6.85,2.61-14.26,2.48-21.47,2.55,3.13,1.46,5.4,4.37,5.2,7.96.17,24.03,0,48.07.08,72.11-.1,3.26.34,6.73-1.05,9.79-.73,1.83-2.81,2.41-4.24,3.53,8.91.22,17.82.22,26.72-.01-2.16-1.25-4.58-2.7-4.86-5.45-.87-7.18-.18-14.46-.41-21.67,9.66,7.85,22.93,10.68,34.94,7.3,11.16-3.36,20.51-11.93,24.91-22.72,5.13-12.32,3.91-27.19-3.54-38.32ZM721.2,738.16c-2.28,4.74-7.04,7.77-12.12,8.67-14.75,1.43-29.33-8.53-34.81-22.02-.33-13.24-.26-26.54-.03-39.78,2.78-3.3,6.77-5.6,10.81-7.07,8.99-2.23,17.54,3.35,23.56,9.51,6.07,6.4,10.47,14.31,13.15,22.69,2.73,9.02,3.76,19.31-.56,28Z" fill="#fff"/>
  <path d="M345.23,729.27c-3.69,10-13.27,16.38-22.95,19.79-19.75,5.83-41.3,2.34-59.75-6.13.04-8.16-.24-16.33.12-24.46.13-.32.38-.95.51-1.27.61,5.34,2.05,10.76,5.71,14.88,6.58,7.51,16.07,11.85,25.6,14.27,8.29,2.11,17,2.81,25.46,1.32,0,0,1.04-.34,1.47-.48.09-.03.16-.06.17-.06,4.71-1.7,9.35-4.06,12.54-8.03,5.77-6.84,4.53-18.38-2.6-23.8-5.28-4.08-12.06-5.3-18.49-6.27-13.93-1.52-29.42,1.06-41.68-7.3-9.76-6.63-11.09-20.68-5.97-30.61.96-1.85,2.13-3.58,3.46-5.18s2.83-3.05,4.44-4.36,3.35-2.49,5.16-3.52c.92-.53,1.88-1,2.84-1.45.3-.14.6-.28.9-.41.3-.13.6-.27.91-.4s.58-.27.88-.41c1.53-.71,3.13-1.19,4.75-1.64.5-.14,1.01-.27,1.52-.4,2.13-.54,4.29-.96,6.46-1.29s4.37-.54,6.57-.65,4.4-.12,6.6-.02,4.4.3,6.58.61,4.35.72,6.49,1.24,4.25,1.13,6.33,1.86,4.11,1.55,6.11,2.47,3.9,1.93,5.76,3.05c-.07,5.79-.04,11.59-.01,17.38,0,1.55.1,3.27-.7,4.67-.02.04-.05.09-.08.13-.47-9.06-6.98-16.44-14.66-20.58-1.34-.72-2.7-1.41-4.08-2.03s-2.82-1.22-4.26-1.75-2.91-1.01-4.39-1.42-2.98-.78-4.49-1.08-3.03-.53-4.55-.7-3.05-.27-4.59-.3-3.06,0-4.59.12-3.05.3-4.56.57c-1.61.29-3.25.61-4.79,1.18-.66.24-1.3.52-1.92.84s-1.27.65-1.88,1.02c-1.2.7-2.35,1.49-3.41,2.39s-2.01,1.9-2.82,3.02c-.46.64-.87,1.32-1.23,2.02-2.76,5.6-2.28,13.06,2.15,17.69,5.24,5.63,13.27,7.48,20.7,7.67,5.31,0,10.62.22,15.92.72,9.52,1.15,19.62,3.32,26.95,9.95,7.39,6.71,8.52,18.09,5.38,27.14Z" fill="#fff"/>
</svg>